<svg width="50" height="50" viewBox="0 0 50 50" fill="none" xmlns="http://www.w3.org/2000/svg">
<g clip-path="url(#clip0_21_70)">
<path opacity="0.2" d="M42.7539 13.8672C43.7788 16.2603 44.0297 18.9141 43.4715 21.4569C42.9132 23.9997 41.5737 26.3043 39.6406 28.0481C37.7074 29.7918 35.2774 30.8873 32.6906 31.1813C30.1039 31.4753 27.49 30.953 25.2149 29.6875L14.2578 42.3828C13.3772 43.2634 12.1829 43.7581 10.9375 43.7581C9.69215 43.7581 8.4978 43.2634 7.6172 42.3828C6.7366 41.5022 6.24188 40.3079 6.24188 39.0625C6.24188 37.8172 6.7366 36.6228 7.6172 35.7422L20.3125 24.7852C19.0471 22.51 18.5248 19.8961 18.8187 17.3094C19.1127 14.7226 20.2083 12.2926 21.952 10.3594C23.6957 8.42629 26.0003 7.08682 28.5431 6.52855C31.0859 5.97029 33.7397 6.22118 36.1328 7.24611L27.9297 15.4297L29.043 20.957L34.5703 22.0703L42.7539 13.8672Z" fill="black"/>
<path d="M42.7539 13.8672C43.7788 16.2603 44.0297 18.9141 43.4715 21.4569C42.9132 23.9997 41.5737 26.3043 39.6406 28.0481C37.7074 29.7918 35.2774 30.8873 32.6906 31.1813C30.1039 31.4753 27.49 30.953 25.2149 29.6875L14.2578 42.3828C13.3772 43.2634 12.1829 43.7581 10.9375 43.7581C9.69215 43.7581 8.4978 43.2634 7.6172 42.3828C6.7366 41.5022 6.24188 40.3079 6.24188 39.0625C6.24188 37.8172 6.7366 36.6228 7.6172 35.7422L20.3125 24.7852C19.0471 22.51 18.5248 19.8961 18.8187 17.3094C19.1127 14.7226 20.2083 12.2926 21.952 10.3594C23.6957 8.42629 26.0003 7.08682 28.5431 6.52855C31.0859 5.97029 33.7397 6.22118 36.1328 7.24611L27.9297 15.4297L29.043 20.957L34.5703 22.0703L42.7539 13.8672Z" stroke="black" stroke-width="2" stroke-linecap="round" stroke-linejoin="round"/>
</g>
<defs>
<clipPath id="clip0_21_70">
<rect width="50" height="50" fill="white"/>
</clipPath>
</defs>
</svg>
