<svg width="50" height="50" viewBox="0 0 50 50" fill="none" xmlns="http://www.w3.org/2000/svg">
<path d="M42.6084 16.3083C42.4034 16.4367 37.5234 19.145 37.5234 25.15C37.7534 31.9983 43.6817 34.4 43.7834 34.4C43.6817 34.5283 42.8884 37.6717 40.5384 40.9667C38.6734 43.805 36.6034 46.6667 33.46 46.6667C30.47 46.6667 29.3967 44.775 25.9467 44.775C22.2417 44.775 21.1934 46.6667 18.3567 46.6667C15.2134 46.6667 12.99 43.6517 11.0234 40.84C8.46837 37.16 6.2967 31.385 6.22003 25.84C6.16837 22.9017 6.7317 20.0133 8.1617 17.56C10.18 14.135 13.7834 11.81 17.7184 11.7333C20.7334 11.6317 23.4167 13.8033 25.2567 13.8033C27.02 13.8033 30.3167 11.7333 34.0467 11.7333C35.6567 11.735 39.95 12.22 42.6084 16.3083ZM25.0017 11.1467C24.465 8.46334 25.9467 5.78 27.3267 4.06834C29.09 1.99834 31.875 0.593338 34.2767 0.593338C34.43 3.27667 33.4584 5.90834 31.7217 7.825C30.1634 9.895 27.48 11.4533 25.0017 11.1467Z" fill="#4A6FA5"/>
</svg>
