<svg width="50" height="50" viewBox="0 0 50 50" fill="none" xmlns="http://www.w3.org/2000/svg">
              <g clip-path="url(#clip0_21_39)">
                <path
                  opacity="0.2"
                  d="M46.875 20.3125C46.8738 19.3236 46.5598 18.3603 45.978 17.5606C45.3962 16.7609 44.5764 16.1657 43.6359 15.8601C42.6953 15.5545 41.6822 15.5543 40.7415 15.8593C39.8008 16.1644 38.9806 16.7592 38.3984 17.5586C34.8242 15.3711 30.1367 14.0625 25 14.0625C19.8633 14.0625 15.1758 15.3711 11.6015 17.5586C11.1916 16.996 10.6615 16.5318 10.0498 16.1997C9.43811 15.8676 8.7601 15.6759 8.06503 15.6385C7.36997 15.6011 6.6753 15.7189 6.03148 15.9835C5.38765 16.2481 4.81083 16.6527 4.3429 17.168C3.87497 17.6833 3.52768 18.2964 3.32624 18.9627C3.12481 19.629 3.07429 20.3317 3.17835 21.02C3.28242 21.7082 3.53846 22.3647 3.92787 22.9416C4.31729 23.5186 4.83031 24.0015 5.42967 24.3555C4.93856 25.5515 4.68642 26.8321 4.68749 28.125C4.68749 35.8984 13.789 42.1875 25 42.1875C36.2109 42.1875 45.3125 35.8984 45.3125 28.125C45.3135 26.8321 45.0614 25.5515 44.5703 24.3555C45.2732 23.9406 45.8556 23.3493 46.2598 22.6402C46.664 21.9311 46.8761 21.1287 46.875 20.3125Z"
                  fill="black"
                />
                <path d="M36.7188 9.375C38.4446 9.375 39.8438 7.97589 39.8438 6.25C39.8438 4.52411 38.4446 3.125 36.7188 3.125C34.9929 3.125 33.5938 4.52411 33.5938 6.25C33.5938 7.97589 34.9929 9.375 36.7188 9.375Z" stroke="black" stroke-width="2" stroke-linecap="round" stroke-linejoin="round" />
                <path d="M31.4453 34.375C29.4528 35.4043 27.2427 35.9415 25 35.9415C22.7573 35.9415 20.5472 35.4043 18.5547 34.375" stroke="black" stroke-width="2" stroke-linecap="round" stroke-linejoin="round" />
                <path d="M25 14.0625L26.5625 4.6875L33.6328 5.78125" stroke="black" stroke-width="2" stroke-linecap="round" stroke-linejoin="round" />
                <path
                  d="M11.6015 17.5586C15.1758 15.3711 19.8633 14.0625 25 14.0625C30.1367 14.0625 34.8242 15.3711 38.3984 17.5586C38.8084 16.996 39.3384 16.5318 39.9501 16.1997C40.5619 15.8676 41.2399 15.6759 41.9349 15.6385C42.63 15.6011 43.3247 15.7189 43.9685 15.9835C44.6123 16.2481 45.1891 16.6527 45.6571 17.168C46.125 17.6833 46.4723 18.2964 46.6737 18.9627C46.8752 19.629 46.9257 20.3317 46.8216 21.02C46.7176 21.7082 46.4615 22.3647 46.0721 22.9416C45.6827 23.5186 45.1697 24.0015 44.5703 24.3555C45.0614 25.5515 45.3135 26.8321 45.3125 28.125C45.3125 35.8984 36.2109 42.1875 25 42.1875C13.789 42.1875 4.68749 35.8984 4.68749 28.125C4.68642 26.8321 4.93856 25.5515 5.42967 24.3555C4.83031 24.0015 4.31729 23.5186 3.92787 22.9416C3.53846 22.3647 3.28242 21.7082 3.17835 21.02C3.07429 20.3317 3.12481 19.629 3.32624 18.9627C3.52768 18.2964 3.87497 17.6833 4.3429 17.168C4.81083 16.6527 5.38765 16.2481 6.03148 15.9835C6.6753 15.7189 7.36997 15.6011 8.06503 15.6385C8.7601 15.6759 9.43811 15.8676 10.0498 16.1997C10.6615 16.5318 11.1916 16.996 11.6015 17.5586Z"
                  stroke="black"
                  stroke-width="2"
                  stroke-linecap="round"
                  stroke-linejoin="round"
                />
                <path d="M17.1875 28.9062C18.9134 28.9062 20.3125 27.5071 20.3125 25.7812C20.3125 24.0554 18.9134 22.6562 17.1875 22.6562C15.4616 22.6562 14.0625 24.0554 14.0625 25.7812C14.0625 27.5071 15.4616 28.9062 17.1875 28.9062Z" fill="black" />
                <path d="M32.8125 28.9062C34.5384 28.9062 35.9375 27.5071 35.9375 25.7812C35.9375 24.0554 34.5384 22.6562 32.8125 22.6562C31.0866 22.6562 29.6875 24.0554 29.6875 25.7812C29.6875 27.5071 31.0866 28.9062 32.8125 28.9062Z" fill="black" />
              </g>
              <defs>
                <clipPath id="clip0_21_39">
                  <rect width="50" height="50" fill="white" />
                </clipPath>
              </defs>
            </svg>