<svg width="50" height="50" viewBox="0 0 50 50" fill="none" xmlns="http://www.w3.org/2000/svg">
<g clip-path="url(#clip0_21_34)">
<path opacity="0.2" d="M25 42.1875C25 42.1875 5.46875 31.25 5.46875 17.9688C5.46875 15.6209 6.28222 13.3455 7.77074 11.5298C9.25927 9.71409 11.3309 8.47018 13.6332 8.00973C15.9355 7.54927 18.3262 7.9007 20.3986 9.00424C22.4709 10.1078 24.097 11.8952 25 14.0625C25.903 11.8952 27.5291 10.1078 29.6014 9.00424C31.6738 7.9007 34.0645 7.54927 36.3668 8.00973C38.6691 8.47018 40.7407 9.71409 42.2293 11.5298C43.7178 13.3455 44.5312 15.6209 44.5312 17.9688C44.5312 31.25 25 42.1875 25 42.1875Z" fill="black"/>
<path d="M6.25 25H14.0625L17.1875 20.3125L23.4375 29.6875L26.5625 25H31.25" stroke="black" stroke-width="2" stroke-linecap="round" stroke-linejoin="round"/>
<path d="M5.48828 18.75C5.46875 18.4961 5.46875 18.2227 5.46875 17.9688C5.46875 15.6209 6.28222 13.3455 7.77074 11.5298C9.25927 9.71409 11.3309 8.47018 13.6332 8.00973C15.9355 7.54927 18.3262 7.9007 20.3986 9.00424C22.4709 10.1078 24.097 11.8952 25 14.0625C25.903 11.8952 27.5291 10.1078 29.6014 9.00424C31.6738 7.9007 34.0645 7.54927 36.3668 8.00973C38.6691 8.47018 40.7407 9.71409 42.2293 11.5298C43.7178 13.3455 44.5313 15.6209 44.5312 17.9688C44.5313 31.25 25 42.1875 25 42.1875C25 42.1875 17.207 37.8125 11.4648 31.25" stroke="black" stroke-width="2" stroke-linecap="round" stroke-linejoin="round"/>
</g>
<defs>
<clipPath id="clip0_21_34">
<rect width="50" height="50" fill="white"/>
</clipPath>
</defs>
</svg>
