<svg width="50" height="50" viewBox="0 0 50 50" fill="none" xmlns="http://www.w3.org/2000/svg">
<g clip-path="url(#clip0_48_40)">
<path opacity="0.2" d="M41.4062 25C43.5636 25 45.3125 23.2511 45.3125 21.0938C45.3125 18.9364 43.5636 17.1875 41.4062 17.1875C39.2489 17.1875 37.5 18.9364 37.5 21.0938C37.5 23.2511 39.2489 25 41.4062 25Z" fill="black"/>
<path opacity="0.2" d="M8.59375 25C10.7511 25 12.5 23.2511 12.5 21.0938C12.5 18.9364 10.7511 17.1875 8.59375 17.1875C6.43639 17.1875 4.6875 18.9364 4.6875 21.0938C4.6875 23.2511 6.43639 25 8.59375 25Z" fill="black"/>
<path opacity="0.2" d="M17.9688 15.625C20.1261 15.625 21.875 13.8761 21.875 11.7188C21.875 9.56139 20.1261 7.8125 17.9688 7.8125C15.8114 7.8125 14.0625 9.56139 14.0625 11.7188C14.0625 13.8761 15.8114 15.625 17.9688 15.625Z" fill="black"/>
<path opacity="0.2" d="M32.0312 15.625C34.1886 15.625 35.9375 13.8761 35.9375 11.7188C35.9375 9.56139 34.1886 7.8125 32.0312 7.8125C29.8739 7.8125 28.125 9.56139 28.125 11.7188C28.125 13.8761 29.8739 15.625 32.0312 15.625Z" fill="black"/>
<path opacity="0.2" d="M35.7812 30.4492C33.8234 29.3527 32.3775 27.5278 31.7578 25.3711C31.3363 23.9043 30.4491 22.6144 29.23 21.6963C28.0109 20.7782 26.5261 20.2816 25 20.2816C23.4738 20.2816 21.9891 20.7782 20.77 21.6963C19.5509 22.6144 18.6636 23.9043 18.2422 25.3711C17.6225 27.5278 16.1766 29.3527 14.2187 30.4492C13.0006 31.1129 12.0378 32.163 11.4821 33.4341C10.9265 34.7052 10.8095 36.1251 11.1496 37.47C11.4898 38.8149 12.2677 40.0084 13.3609 40.8625C14.454 41.7166 15.8002 42.1828 17.1875 42.1875C18.0256 42.188 18.8555 42.0221 19.6289 41.6992C21.3316 40.9933 23.1567 40.6299 25 40.6299C26.8432 40.6299 28.6684 40.9933 30.3711 41.6992C31.1445 42.0221 31.9744 42.188 32.8125 42.1875C34.1997 42.1828 35.546 41.7166 36.6391 40.8625C37.7323 40.0084 38.5102 38.8149 38.8503 37.47C39.1905 36.1251 39.0735 34.7052 38.5178 33.4341C37.9622 32.163 36.9994 31.1129 35.7812 30.4492Z" fill="black"/>
<path d="M41.4062 25C43.5636 25 45.3125 23.2511 45.3125 21.0938C45.3125 18.9364 43.5636 17.1875 41.4062 17.1875C39.2489 17.1875 37.5 18.9364 37.5 21.0938C37.5 23.2511 39.2489 25 41.4062 25Z" stroke="black" stroke-width="2" stroke-linecap="round" stroke-linejoin="round"/>
<path d="M8.59375 25C10.7511 25 12.5 23.2511 12.5 21.0938C12.5 18.9364 10.7511 17.1875 8.59375 17.1875C6.43639 17.1875 4.6875 18.9364 4.6875 21.0938C4.6875 23.2511 6.43639 25 8.59375 25Z" stroke="black" stroke-width="2" stroke-linecap="round" stroke-linejoin="round"/>
<path d="M17.9688 15.625C20.1261 15.625 21.875 13.8761 21.875 11.7188C21.875 9.56139 20.1261 7.8125 17.9688 7.8125C15.8114 7.8125 14.0625 9.56139 14.0625 11.7188C14.0625 13.8761 15.8114 15.625 17.9688 15.625Z" stroke="black" stroke-width="2" stroke-linecap="round" stroke-linejoin="round"/>
<path d="M32.0312 15.625C34.1886 15.625 35.9375 13.8761 35.9375 11.7188C35.9375 9.56139 34.1886 7.8125 32.0312 7.8125C29.8739 7.8125 28.125 9.56139 28.125 11.7188C28.125 13.8761 29.8739 15.625 32.0312 15.625Z" stroke="black" stroke-width="2" stroke-linecap="round" stroke-linejoin="round"/>
<path d="M35.7812 30.4492C33.8234 29.3527 32.3775 27.5278 31.7578 25.3711C31.3363 23.9043 30.4491 22.6144 29.23 21.6963C28.0109 20.7782 26.5261 20.2816 25 20.2816C23.4738 20.2816 21.9891 20.7782 20.77 21.6963C19.5509 22.6144 18.6636 23.9043 18.2422 25.3711C17.6225 27.5278 16.1766 29.3527 14.2187 30.4492C13.0006 31.1129 12.0378 32.163 11.4821 33.4341C10.9265 34.7052 10.8095 36.1251 11.1496 37.47C11.4898 38.8149 12.2677 40.0084 13.3609 40.8625C14.454 41.7166 15.8002 42.1828 17.1875 42.1875C18.0256 42.188 18.8555 42.0221 19.6289 41.6992C21.3316 40.9933 23.1567 40.6299 25 40.6299C26.8432 40.6299 28.6684 40.9933 30.3711 41.6992C31.1445 42.0221 31.9744 42.188 32.8125 42.1875C34.1997 42.1828 35.546 41.7166 36.6391 40.8625C37.7323 40.0084 38.5102 38.8149 38.8503 37.47C39.1905 36.1251 39.0735 34.7052 38.5178 33.4341C37.9622 32.163 36.9994 31.1129 35.7812 30.4492Z" stroke="black" stroke-width="2" stroke-linecap="round" stroke-linejoin="round"/>
</g>
<defs>
<clipPath id="clip0_48_40">
<rect width="50" height="50" fill="white"/>
</clipPath>
</defs>
</svg>
